<svg xmlns="http://www.w3.org/2000/svg" xmlns:xlink="http://www.w3.org/1999/xlink" xmlns:inkscape="http://www.inkscape.org/namespaces/inkscape" width="170.0787" height="144.5669" viewBox="0 0 170.0787 144.5669"><g inkscape:groupmode="layer" inkscape:label="Camada 1"><path transform="matrix(1,0,0,-1,0,144.5669)" d="M34.8225 31.7234C77.3141 38.8256 145.9383 86.7025 160.4401 114.5506 165.5731 124.4069 166.0805 136.6892 153.3356 140.4278 136.186 145.4584 110.611 134.7951 95.8822 126.7917 109.7853 131.6818 136.0151 142.7598 151.8307 138.7389 196.5668 127.3649 90.4414 46.957 35.4458 34.3006 10.6441 28.5934-1.8213 38.1189 6.5948 64.2112-6.158 37.4689 12.2426 27.9499 34.8225 31.7234" fill="#bc9927" fill-rule="evenodd"></path><path transform="matrix(1,0,0,-1,0,144.5669)" d="M-.2151 2.0937V12.767H1.5965L5.6509 6.3556C5.7609 6.1795 5.8955 5.9545 6.0568 5.6832 6.2158 5.4094 6.3845 5.1109 6.5605 4.7835 6.7368 4.4555 6.9129 4.1182 7.0838 3.7709L6.8978 3.5705C6.8737 3.903 6.8542 4.2625 6.8369 4.644 6.8196 5.0253 6.8074 5.3872 6.8 5.7249 6.7929 6.0644 6.7904 6.3337 6.7904 6.5341V12.767H8.409V2.0937H6.5826L2.9563 7.8253C2.8094 8.0575 2.643 8.3313 2.4596 8.642 2.2765 8.9524 2.0684 9.3118 1.8363 9.7203 1.6038 10.1285 1.3399 10.5956 1.044 11.1189L1.2886 11.2924C1.3156 10.7569 1.3399 10.2654 1.3569 9.8155 1.3717 9.3682 1.3839 8.9745 1.3912 8.6369 1.3986 8.3018 1.4034 8.0331 1.4034 7.8324V2.0937ZM166.8115 1.9621C166.1737 1.9621 165.6241 2.0673 165.1626 2.2774 164.7011 2.4874 164.3411 2.7896 164.086 3.1796 163.8289 3.57 163.6957 4.0351 163.6846 4.5771H164.9205C164.9319 4.2469 165.018 3.9674 165.1796 3.7366 165.3406 3.5062 165.5603 3.3316 165.8415 3.2153 166.121 3.0971 166.4436 3.039 166.8115 3.039 167.1695 3.039 167.4867 3.0932 167.7589 3.2003 168.0327 3.3092 168.2447 3.4628 168.3984 3.6598 168.5523 3.8568 168.6291 4.0895 168.6291 4.352 168.6291 4.5751 168.571 4.7648 168.4511 4.9187 168.3329 5.0723 168.1583 5.2036 167.9255 5.3144 167.6951 5.423 167.4096 5.5208 167.0683 5.6049L166.14 5.8357C165.3857 6.027 164.8193 6.2991 164.4423 6.6518 164.065 7.0064 163.876 7.4639 163.876 8.0286 163.876 8.5051 163.9996 8.9215 164.247 9.2798 164.4948 9.6361 164.838 9.9119 165.2751 10.1089 165.7123 10.3039 166.2148 10.4031 166.7832 10.4031 167.3629 10.4031 167.8654 10.3003 168.2955 10.0976 168.7229 9.8952 169.0588 9.6097 169.3026 9.246 169.5464 8.8821 169.674 8.4543 169.6853 7.9631H168.4868C168.4548 8.3906 168.2821 8.7265 167.9706 8.9666 167.6594 9.2066 167.256 9.3249 166.7608 9.3249 166.4362 9.3249 166.1474 9.2741 165.8979 9.1689 165.6502 9.0641 165.4551 8.9198 165.3165 8.7321 165.1776 8.5445 165.1082 8.3324 165.1082 8.0943 165.1082 7.8673 165.172 7.6776 165.2995 7.526 165.4271 7.374 165.6071 7.2465 165.8361 7.1433 166.0649 7.0421 166.3311 6.9537 166.6349 6.8805L167.4754 6.6668C167.8207 6.586 168.1376 6.4811 168.4267 6.3536 168.7156 6.224 168.9687 6.0701 169.1827 5.8884 169.3964 5.7064 169.5634 5.4927 169.6816 5.2449 169.8015 4.9972 169.8616 4.712 169.8616 4.3858 169.8616 3.9056 169.7377 3.4835 169.4903 3.1178 169.2425 2.7539 168.8919 2.4707 168.4341 2.2663 167.9783 2.0636 167.438 1.9621 166.8115 1.9621ZM155.6731 2.0937 158.618 10.2815H160.1184L163.0749 2.0937H161.7395L160.1504 6.6818C160.0265 7.0662 159.8896 7.4996 159.7416 7.9798 159.5934 8.46 159.4171 9.0473 159.2107 9.743H159.5203C159.3176 9.0473 159.143 8.4563 158.995 7.9705 158.8467 7.4863 158.7098 7.0569 158.586 6.6818L156.9971 2.0937ZM157.288 4.2318V5.275H161.46V4.2318ZM151.8143 1.9735C151.0826 1.9735 150.4318 2.1461 149.8671 2.4911 149.3005 2.8383 148.8563 3.3259 148.5334 3.9563 148.2109 4.5865 148.0496 5.3294 148.0496 6.1826 148.0496 7.0398 148.2109 7.7848 148.5317 8.4169 148.8523 9.049 149.2951 9.5366 149.8635 9.8836 150.4318 10.2288 151.0826 10.4031 151.8143 10.4031 152.2551 10.4031 152.6661 10.3394 153.0488 10.2101 153.4314 10.0826 153.7747 9.8952 154.0766 9.6494 154.3788 9.4037 154.6282 9.1089 154.8269 8.7619 155.0239 8.4169 155.1589 8.0249 155.232 7.5898H153.9811C153.9247 7.8596 153.8308 8.1 153.6996 8.31 153.5683 8.5181 153.4071 8.6944 153.2194 8.839 153.03 8.9836 152.818 9.0921 152.5816 9.1672 152.3449 9.2404 152.0921 9.2761 151.8199 9.2761 151.3154 9.2761 150.8709 9.1522 150.4899 8.9028 150.1092 8.653 149.8127 8.2967 149.6027 7.8335 149.3926 7.3704 149.2875 6.8204 149.2875 6.1826 149.2875 5.5449 149.3926 4.9955 149.6047 4.534 149.8184 4.0725 150.1129 3.7179 150.4936 3.4705 150.8726 3.2227 151.3154 3.0991 151.8199 3.0991 152.0921 3.0991 152.3432 3.1365 152.5779 3.2097 152.8123 3.2828 153.0261 3.3897 153.2157 3.5342 153.4071 3.6765 153.5683 3.8511 153.6996 4.0612 153.8308 4.2695 153.9266 4.5096 153.9848 4.7818H155.232C155.1665 4.3594 155.0353 3.9767 154.84 3.6317 154.6432 3.2885 154.3955 2.992 154.0936 2.7445 153.7897 2.4968 153.4462 2.3074 153.0618 2.1742 152.6774 2.0392 152.2607 1.9735 151.8143 1.9735ZM146.7102 10.2815V2.0937H145.4743V10.2815ZM140.6194 1.9735C139.8804 1.9735 139.2276 2.1481 138.6609 2.4968 138.0946 2.8477 137.6518 3.3389 137.3329 3.9713 137.014 4.6015 136.8547 5.3405 136.8547 6.1826 136.8547 7.0398 137.016 7.7848 137.3386 8.4169 137.6612 9.049 138.1039 9.5366 138.6666 9.8836 139.2293 10.2288 139.8711 10.4031 140.593 10.4031 141.0358 10.4031 141.4522 10.3357 141.8406 10.2025 142.2289 10.0675 142.5739 9.8782 142.878 9.6344 143.1819 9.3886 143.4351 9.0958 143.634 8.7602 143.8347 8.4226 143.966 8.0493 144.0315 7.6385H142.7749C142.7074 7.888 142.6096 8.113 142.4803 8.3137 142.3508 8.5161 142.1915 8.6888 142.0038 8.8313 141.8182 8.9739 141.6081 9.0848 141.3737 9.1616 141.139 9.2384 140.8819 9.2761 140.6024 9.2761 140.1129 9.2761 139.6777 9.1522 139.2987 8.9028 138.918 8.653 138.6235 8.2987 138.4095 7.8372 138.1978 7.374 138.0926 6.8244 138.0926 6.1826 138.0926 5.5488 138.1995 5.0012 138.4135 4.5397 138.6272 4.0782 138.9254 3.7216 139.3064 3.4722 139.6871 3.2247 140.1279 3.0991 140.6305 3.0991 141.0659 3.0991 141.4522 3.191 141.7898 3.371 142.1277 3.5529 142.3922 3.8081 142.5872 4.1383 142.7822 4.4683 142.878 4.8549 142.878 5.2974L143.2137 5.26H140.8612V6.2804H144.0935V5.3405C144.0935 4.6746 143.9416 4.0876 143.6394 3.583 143.3375 3.0764 142.9248 2.6824 142.4035 2.3992 141.882 2.1141 141.2872 1.9735 140.6194 1.9735ZM130.4541 2.0937V10.2815H135.8002V9.2103H131.6903V6.781H135.504V5.7214H131.6903V3.1646H135.8172V2.0937ZM132.6453 11.0373 133.448 12.6975H134.6899L133.5586 11.0373ZM122.8686 9.2103V10.2815H129.2652V9.2103H126.6877V2.0937H125.4515V9.2103ZM115.9673 2.0937 118.9123 10.2815H120.4126L123.3692 2.0937H122.0338L120.4447 6.6818C120.3208 7.0662 120.1839 7.4996 120.0359 7.9798 119.8877 8.46 119.7113 9.0473 119.505 9.743H119.8145C119.6118 9.0473 119.4372 8.4563 119.2893 7.9705 119.141 7.4863 119.0041 7.0569 118.8802 6.6818L117.2914 2.0937ZM117.5822 4.2318V5.275H121.7543V4.2318ZM109.3793 2.0937V10.2815H112.4124C113.0202 10.2815 113.5361 10.1764 113.9581 9.9626 114.3822 9.7506 114.7048 9.4524 114.9259 9.0677 115.1476 8.6834 115.2581 8.2329 115.2581 7.721 115.2581 7.2088 115.1436 6.7606 114.9148 6.3797 114.6861 5.999 114.3558 5.7044 113.9224 5.4981 113.491 5.2917 112.9714 5.1868 112.3617 5.1868H110.0883V6.2427H112.3296C112.703 6.2427 113.0145 6.3028 113.2659 6.421 113.5174 6.5412 113.707 6.7099 113.8363 6.9333 113.9638 7.1544 114.0276 7.4171 114.0276 7.721 114.0276 8.0286 113.9621 8.295 113.8326 8.5181 113.703 8.7415 113.5117 8.9138 113.2603 9.0377 113.0108 9.1596 112.6956 9.2217 112.3186 9.2217H110.6152V2.0937ZM114.0727 2.0937 112.1102 5.7869H113.4723L115.4682 2.0937ZM101.7935 9.2103V10.2815H108.1902V9.2103H105.6127V2.0937H104.3765V9.2103ZM98.0192 1.9621C97.3814 1.9621 96.8318 2.0673 96.3703 2.2774 95.9088 2.4874 95.5488 2.7896 95.2937 3.1796 95.0366 3.57 94.9034 4.0351 94.8923 4.5771H96.1285C96.1396 4.2469 96.2257 3.9674 96.3873 3.7366 96.5486 3.5062 96.768 3.3316 97.0495 3.2153 97.3287 3.0971 97.6516 3.039 98.0192 3.039 98.3772 3.039 98.6944 3.0932 98.9666 3.2003 99.2404 3.3092 99.4524 3.4628 99.606 3.6598 99.76 3.8568 99.8371 4.0895 99.8371 4.352 99.8371 4.5751 99.7787 4.7648 99.6588 4.9187 99.5406 5.0723 99.366 5.2036 99.1332 5.3144 98.9028 5.423 98.6176 5.5208 98.276 5.6049L97.3477 5.8357C96.5937 6.027 96.027 6.2991 95.65 6.6518 95.273 7.0064 95.0837 7.4639 95.0837 8.0286 95.0837 8.5051 95.2072 8.9215 95.455 9.2798 95.7025 9.6361 96.0457 9.9119 96.4828 10.1089 96.9199 10.3039 97.4228 10.4031 97.9909 10.4031 98.5706 10.4031 99.0734 10.3003 99.5031 10.0976 99.9306 9.8952 100.2665 9.6097 100.5103 9.246 100.7541 8.8821 100.8816 8.4543 100.893 7.9631H99.6945C99.6625 8.3906 99.4901 8.7265 99.1783 8.9666 98.8671 9.2066 98.4637 9.3249 97.9685 9.3249 97.6439 9.3249 97.3551 9.2741 97.1056 9.1689 96.8581 9.0641 96.6628 8.9198 96.5242 8.7321 96.3853 8.5445 96.3159 8.3324 96.3159 8.0943 96.3159 7.8673 96.3797 7.6776 96.5072 7.526 96.6348 7.374 96.8148 7.2465 97.0438 7.1433 97.2726 7.0421 97.5387 6.9537 97.8429 6.8805L98.6831 6.6668C99.0283 6.586 99.3453 6.4811 99.6344 6.3536 99.9232 6.224 100.1764 6.0701 100.3904 5.8884 100.6041 5.7064 100.7711 5.4927 100.8893 5.2449 101.0092 4.9972 101.0693 4.712 101.0693 4.3858 101.0693 3.9056 100.9454 3.4835 100.698 3.1178 100.4502 2.7539 100.0996 2.4707 99.6418 2.2663 99.186 2.0636 98.6457 1.9621 98.0192 1.9621ZM86.7393 2.0937V12.767H93.7083V11.3706H88.3505V8.204H93.3219V6.8227H88.3505V3.4897H93.7304V2.0937ZM10.2951 2.0937V10.2815H15.6413V9.2103H11.5313V6.781H15.3448V5.7214H11.5313V3.1646H15.6583V2.0937ZM20.4602 1.9735C19.7212 1.9735 19.0684 2.1481 18.502 2.4968 17.9354 2.8477 17.4926 3.3389 17.1737 3.9713 16.8551 4.6015 16.6955 5.3405 16.6955 6.1826 16.6955 7.0398 16.8568 7.7848 17.1797 8.4169 17.5022 9.049 17.9447 9.5366 18.5074 9.8836 19.0704 10.2288 19.7118 10.4031 20.4341 10.4031 20.8766 10.4031 21.293 10.3357 21.6814 10.2025 22.0697 10.0675 22.4147 9.8782 22.7186 9.6344 23.0227 9.3886 23.2758 9.0958 23.4746 8.7602 23.6752 8.4226 23.8068 8.0493 23.8723 7.6385H22.6157C22.5482 7.888 22.4504 8.113 22.3211 8.3137 22.1916 8.5161 22.0323 8.6888 21.8446 8.8313 21.659 8.9739 21.4489 9.0848 21.2142 9.1616 20.9798 9.2384 20.7227 9.2761 20.4435 9.2761 19.9536 9.2761 19.5185 9.1522 19.1398 8.9028 18.7588 8.653 18.4643 8.2987 18.2506 7.8372 18.0386 7.374 17.9334 6.8244 17.9334 6.1826 17.9334 5.5488 18.0405 5.0012 18.2543 4.5397 18.468 4.0782 18.7665 3.7216 19.1472 3.4722 19.5279 3.2247 19.9689 3.0991 20.4715 3.0991 20.9066 3.0991 21.293 3.191 21.6306 3.371 21.9685 3.5529 22.233 3.8081 22.428 4.1383 22.623 4.4683 22.7186 4.8549 22.7186 5.2974L23.0545 5.26H20.7023V6.2804H23.9343V5.3405C23.9343 4.6746 23.7824 4.0876 23.4802 3.583 23.1783 3.0764 22.7656 2.6824 22.244 2.3992 21.7227 2.1141 21.128 1.9735 20.4602 1.9735ZM28.7552 1.9735C28.0369 1.9735 27.3954 2.1461 26.8345 2.4911 26.2715 2.8383 25.8273 3.3279 25.5044 3.96 25.1802 4.5921 25.0169 5.3331 25.0169 6.1826 25.0169 7.0398 25.1802 7.7848 25.5044 8.4169 25.8273 9.049 26.2715 9.5366 26.8345 9.8836 27.3954 10.2288 28.0369 10.4031 28.7552 10.4031 29.4718 10.4031 30.1133 10.2288 30.6743 9.8836 31.2369 9.5366 31.6797 9.049 32.0023 8.4169 32.3249 7.7848 32.4862 7.0398 32.4862 6.1826 32.4862 5.3331 32.3249 4.5921 32.0023 3.96 31.6797 3.3279 31.2369 2.8383 30.6743 2.4911 30.1133 2.1461 29.4718 1.9735 28.7552 1.9735ZM28.7552 3.0991C29.2241 3.0991 29.6464 3.217 30.0231 3.4534 30.4002 3.6899 30.7003 4.0388 30.9217 4.4983 31.1431 4.9578 31.2557 5.5188 31.2557 6.1826 31.2557 6.8488 31.1431 7.4132 30.9217 7.8746 30.7003 8.3364 30.4002 8.6851 30.0231 8.9215 29.6464 9.1579 29.2241 9.2761 28.7552 9.2761 28.2864 9.2761 27.8623 9.1579 27.4853 8.9198 27.1083 8.6814 26.8081 8.3324 26.5867 7.8729 26.3656 7.4115 26.2548 6.8488 26.2548 6.1826 26.2548 5.5188 26.3656 4.9578 26.5867 4.5003 26.8081 4.0425 27.1083 3.6955 27.4853 3.4571 27.8623 3.219 28.2864 3.0991 28.7552 3.0991ZM37.294 1.9735C36.5627 1.9735 35.9116 2.1461 35.3469 2.4911 34.7803 2.8383 34.3358 3.3259 34.0132 3.9563 33.6906 4.5865 33.5293 5.3294 33.5293 6.1826 33.5293 7.0398 33.6906 7.7848 34.0115 8.4169 34.3321 9.049 34.7746 9.5366 35.3432 9.8836 35.9116 10.2288 36.5627 10.4031 37.294 10.4031 37.7348 10.4031 38.1455 10.3394 38.5282 10.2101 38.9109 10.0826 39.2545 9.8952 39.5563 9.6494 39.8582 9.4037 40.108 9.1089 40.3067 8.7619 40.5037 8.4169 40.6386 8.0249 40.7117 7.5898H39.4608C39.4044 7.8596 39.3106 8.1 39.1793 8.31 39.0478 8.5181 38.8868 8.6944 38.6991 8.839 38.5095 8.9836 38.2978 9.0921 38.0614 9.1672 37.8249 9.2404 37.5718 9.2761 37.2997 9.2761 36.7951 9.2761 36.3506 9.1522 35.97 8.9028 35.589 8.653 35.2925 8.2967 35.0824 7.8335 34.8724 7.3704 34.7672 6.8204 34.7672 6.1826 34.7672 5.5449 34.8724 4.9955 35.0841 4.534 35.2981 4.0725 35.5927 3.7179 35.9736 3.4705 36.3526 3.2227 36.7951 3.0991 37.2997 3.0991 37.5718 3.0991 37.823 3.1365 38.0577 3.2097 38.2921 3.2828 38.5058 3.3897 38.6955 3.5342 38.8868 3.6765 39.0478 3.8511 39.1793 4.0612 39.3106 4.2695 39.4064 4.5096 39.4645 4.7818H40.7117C40.6463 4.3594 40.5147 3.9767 40.3197 3.6317 40.1227 3.2885 39.8752 2.992 39.5734 2.7445 39.2695 2.4968 38.9259 2.3074 38.5415 2.1742 38.1572 2.0392 37.7405 1.9735 37.294 1.9735ZM43.2573 10.2815V2.0937H42.0214V10.2815ZM44.2514 2.0937 47.1966 10.2815H48.6972L51.6535 2.0937H50.3181L48.7293 6.6818C48.6054 7.0662 48.4685 7.4996 48.3202 7.9798 48.172 8.46 47.9957 9.0473 47.7893 9.743H48.0988C47.8962 9.0473 47.7218 8.4563 47.5736 7.9705 47.4256 7.4863 47.2887 7.0569 47.1648 6.6818L45.5757 2.0937ZM45.8668 4.2318V5.275H50.0383V4.2318ZM55.7257 1.9735C54.9944 1.9735 54.3436 2.1461 53.7789 2.4911 53.2123 2.8383 52.7678 3.3259 52.4452 3.9563 52.1226 4.5865 51.961 5.3294 51.961 6.1826 51.961 7.0398 52.1226 7.7848 52.4432 8.4169 52.7638 9.049 53.2066 9.5366 53.7749 9.8836 54.3436 10.2288 54.9944 10.4031 55.7257 10.4031 56.1668 10.4031 56.5775 10.3394 56.9602 10.2101 57.3429 10.0826 57.6865 9.8952 57.9883 9.6494 58.2902 9.4037 58.5397 9.1089 58.7387 8.7619 58.9357 8.4169 59.0706 8.0249 59.1437 7.5898H57.8925C57.8364 7.8596 57.7426 8.1 57.6111 8.31 57.4798 8.5181 57.3185 8.6944 57.1311 8.839 56.9415 8.9836 56.7298 9.0921 56.4934 9.1672 56.2569 9.2404 56.0035 9.2761 55.7314 9.2761 55.2271 9.2761 54.7824 9.1522 54.4017 8.9028 54.0207 8.653 53.7245 8.2967 53.5144 7.8335 53.3044 7.3704 53.1992 6.8204 53.1992 6.1826 53.1992 5.5449 53.3044 4.9955 53.5161 4.534 53.7299 4.0725 54.0247 3.7179 54.4054 3.4705 54.7843 3.2227 55.2271 3.0991 55.7314 3.0991 56.0035 3.0991 56.255 3.1365 56.4894 3.2097 56.7241 3.2828 56.9378 3.3897 57.1272 3.5342 57.3185 3.6765 57.4798 3.8511 57.6111 4.0612 57.7426 4.2695 57.8381 4.5096 57.8965 4.7818H59.1437C59.078 4.3594 58.9467 3.9767 58.7517 3.6317 58.5547 3.2885 58.3072 2.992 58.0054 2.7445 57.7012 2.4968 57.3579 2.3074 56.9735 2.1742 56.5889 2.0392 56.1722 1.9735 55.7257 1.9735ZM55.0188-.2157V.3903H55.6733C55.8553 .3903 55.9885 .4184 56.071 .4748 56.1535 .5309 56.1951 .6211 56.1951 .741 56.1951 .8668 56.1535 .955 56.071 1.0111 55.9885 1.0655 55.8553 1.0939 55.6733 1.0939H55.2175L55.3921 2.3411H55.9528V2.0823L55.9474 1.6152C56.2813 1.6075 56.5384 1.527 56.7204 1.3714 56.9001 1.2155 56.9923 1.0001 56.9923 .7243 56.9923 .4017 56.8814 .1653 56.662 .0133 56.4426-.1386 56.1234-.2157 55.7053-.2157ZM63.8935 1.9735C63.1749 1.9735 62.5334 2.1461 61.9724 2.4911 61.4098 2.8383 60.9653 3.3279 60.6427 3.96 60.3181 4.5921 60.1549 5.3331 60.1549 6.1826 60.1549 7.0398 60.3181 7.7848 60.6427 8.4169 60.9653 9.049 61.4098 9.5366 61.9724 9.8836 62.5334 10.2288 63.1749 10.4031 63.8935 10.4031 64.6098 10.4031 65.2516 10.2288 65.8123 9.8836 66.3749 9.5366 66.818 9.049 67.1406 8.4169 67.4631 7.7848 67.6244 7.0398 67.6244 6.1826 67.6244 5.3331 67.4631 4.5921 67.1406 3.96 66.818 3.3279 66.3749 2.8383 65.8123 2.4911 65.2516 2.1461 64.6098 1.9735 63.8935 1.9735ZM63.8935 3.0991C64.3623 3.0991 64.7844 3.217 65.1614 3.4534 65.5384 3.6899 65.8386 4.0388 66.0597 4.4983 66.2814 4.9578 66.3939 5.5188 66.3939 6.1826 66.3939 6.8488 66.2814 7.4132 66.0597 7.8746 65.8386 8.3364 65.5384 8.6851 65.1614 8.9215 64.7844 9.1579 64.3623 9.2761 63.8935 9.2761 63.4243 9.2761 63.0006 9.1579 62.6233 8.9198 62.2463 8.6814 61.9464 8.3324 61.725 7.8729 61.5036 7.4115 61.3928 6.8488 61.3928 6.1826 61.3928 5.5188 61.5036 4.9578 61.725 4.5003 61.9464 4.0425 62.2463 3.6955 62.6233 3.4571 63.0006 3.219 63.4243 3.0991 63.8935 3.0991ZM64.6305 11.3074C64.4842 11.3074 64.3453 11.3301 64.2141 11.3788 64.0828 11.4256 63.959 11.482 63.8464 11.5495 63.7319 11.615 63.627 11.6714 63.5332 11.7221 63.4377 11.7709 63.3512 11.7952 63.2744 11.7952 63.1749 11.7952 63.1018 11.7482 63.051 11.6527 63.0023 11.5569 62.9742 11.45 62.9668 11.3281H62.2089C62.2182 11.7034 62.3064 12.0016 62.4696 12.2267 62.6326 12.4517 62.8673 12.5663 63.1749 12.5663 63.3249 12.5663 63.4637 12.5399 63.5893 12.4911 63.7169 12.4424 63.8334 12.3843 63.9386 12.3185 64.0451 12.2528 64.1466 12.1946 64.2404 12.1439 64.336 12.0954 64.4318 12.0708 64.5273 12.0708 64.6305 12.0708 64.7056 12.1085 64.7544 12.1836 64.8051 12.2584 64.8369 12.3786 64.8519 12.5436H65.5872C65.5798 12.1629 65.4917 11.8607 65.3207 11.6396 65.1501 11.4182 64.9213 11.3074 64.6305 11.3074ZM68.9658 2.0937V10.2815H74.3117V9.2103H70.202V6.781H74.0154V5.7214H70.202V3.1646H74.3287V2.0937ZM78.4613 1.9621C77.8235 1.9621 77.2739 2.0673 76.8121 2.2774 76.3509 2.4874 75.9906 2.7896 75.7355 3.1796 75.4787 3.57 75.3454 4.0351 75.3341 4.5771H76.5703C76.5816 4.2469 76.6678 3.9674 76.8291 3.7366 76.9904 3.5062 77.2101 3.3316 77.4916 3.2153 77.7711 3.0971 78.0936 3.039 78.4613 3.039 78.8196 3.039 79.1365 3.0932 79.4086 3.2003 79.6825 3.3092 79.8945 3.4628 80.0481 3.6598 80.202 3.8568 80.2789 4.0895 80.2789 4.352 80.2789 4.5751 80.2208 4.7648 80.1006 4.9187 79.9824 5.0723 79.808 5.2036 79.5756 5.3144 79.3449 5.423 79.0597 5.5208 78.7184 5.6049L77.7898 5.8357C77.0355 6.027 76.4691 6.2991 76.0918 6.6518 75.7148 7.0064 75.5254 7.4639 75.5254 8.0286 75.5254 8.5051 75.6493 8.9215 75.8968 9.2798 76.1445 9.6361 76.4878 9.9119 76.9249 10.1089 77.362 10.3039 77.8649 10.4031 78.4329 10.4031 79.0126 10.4031 79.5155 10.3003 79.9449 10.0976 80.3727 9.8952 80.7086 9.6097 80.9524 9.246 81.1962 8.8821 81.3237 8.4543 81.3351 7.9631H80.1363C80.1045 8.3906 79.9319 8.7265 79.6207 8.9666 79.3091 9.2066 78.9058 9.3249 78.4106 9.3249 78.086 9.3249 77.7974 9.2741 77.5477 9.1689 77.3002 9.0641 77.1049 8.9198 76.966 8.7321 76.8274 8.5445 76.758 8.3324 76.758 8.0943 76.758 7.8673 76.8217 7.6776 76.9493 7.526 77.0769 7.374 77.2569 7.2465 77.4859 7.1433 77.7146 7.0421 77.9811 6.9537 78.285 6.8805L79.1252 6.6668C79.4704 6.586 79.7873 6.4811 80.0765 6.3536 80.365 6.224 80.6185 6.0701 80.8325 5.8884 81.0462 5.7064 81.2129 5.4927 81.3311 5.2449 81.4513 4.9972 81.5114 4.712 81.5114 4.3858 81.5114 3.9056 81.3875 3.4835 81.1397 3.1178 80.8923 2.7539 80.5416 2.4707 80.0838 2.2663 79.628 2.0636 79.0877 1.9621 78.4613 1.9621" fill="#bc9927"></path><path transform="matrix(1,0,0,-1,0,144.5669)" d="M47.1016 91.1769H43.9458V87.9058 87.9052H43.9656C52.0396 87.645 53.4146 86.1772 53.4146 78.0925 53.4146 67.9558 53.3307 57.9039 53.3307 47.7045 53.3307 44.5666 52.8324 41.8314 51.9593 39.4889 55.2855 40.7636 58.7013 42.1917 62.1794 43.7559 62.4226 45.2256 62.5527 46.7705 62.5527 48.3931 62.5527 58.2324 62.4535 67.8988 62.4535 77.6622V78.9639H62.4674C62.6346 86.3612 64.4709 87.9058 74.3329 87.9058V91.1769ZM94.0439 104.9652C91.0094 101.6274 88.1572 100.1707 84.8194 100.1707 78.3258 100.1707 74.0778 105.6932 74.0778 114.1288 74.0778 115.2213 74.1385 116.1921 74.3202 116.8597H94.2866C95.9253 116.8597 96.1679 116.9813 96.1679 118.0738 96.1679 125.9629 91.6163 130.3931 83.8483 130.3931 74.0778 130.3931 67.2197 123.2926 67.2197 113.3399 67.2197 103.6301 73.6526 97.0149 83.12 97.0149 88.2785 97.0149 92.4052 99.0176 95.9253 103.2659ZM74.7454 119.6515C75.7769 124.81 78.5684 127.4803 82.8771 127.4803 86.9434 127.4803 89.553 125.0529 89.553 121.3506 89.553 119.8945 89.1887 119.6515 85.9116 119.6515ZM15.2597 102.1799C15.2597 95.6937 13.3784 91.9242 10.1013 91.9242 8.5235 91.9242 7.738 92.6575 6.3388 95.2614 5.1318 97.5087 4.3965 98.1142 2.8797 98.1142 .9371 98.1142-.2154 96.961-.2154 94.8974-.2154 91.3779 3.486 89.011 9.0088 89.011 17.2018 89.011 21.632 94.5332 21.632 104.6684V134.7024C21.632 140.8317 22.4206 141.863 27.6403 142.0452V144.3518H9.1911V142.0452C14.4099 141.8029 15.2597 140.7671 15.2597 135.1267ZM68.1194 132.6387C68.1194 139.9819 61.6867 144.3515 50.5809 144.3515H31.5249V142.0455C36.7441 141.8026 37.5936 140.7708 37.5936 135.127V106.8463C37.5936 101.1419 36.6228 100.11 30.918 99.9281V97.6218H52.3409V99.9281C44.9977 99.9281 43.9659 101.1419 43.9659 107.1499V118.8626H49.4277C62.9612 118.8626 68.1194 124.1425 68.1194 132.6387ZM43.9659 140.4675C43.9659 141.0744 44.3302 141.499 44.9977 141.499H50.5809C57.1958 141.499 60.2303 138.7077 60.2303 131.9105 60.2303 124.81 56.2853 121.8971 48.2746 121.8971H43.9659ZM49.9059 35.5431C41.3422 23.2931 19.6696 28.0327 19.6696 47.7051V62.9855C19.6696 71.4223 20.0089 75.6465 21.5637 77.7053 22.9323 79.5161 25.2658 79.7712 29.1393 79.7712V83.0432H-.2154V79.7712C3.6584 79.7712 5.9094 79.3485 7.2737 77.8782 9.2625 75.7369 9.3399 71.5034 9.3399 62.9855V48.3934C9.3399 17.0351 52.8092 15.2691 61.168 39.7117 57.3355 38.137 53.5697 36.739 49.9059 35.5431ZM85.6131 47.6705C85.6131 53.024 85.953 54.4689 87.1427 56.7632 89.5218 61.3522 94.1111 64.2416 99.1247 64.2416 99.2923 64.2416 99.4561 64.2382 99.6185 64.2331 101.7972 65.6226 103.9584 67.036 106.0957 68.4689 104.851 68.7053 103.5363 68.8303 102.1842 68.8303 95.4706 68.8303 89.437 65.6861 85.1882 60.4174H84.8483L83.8287 68.8303 70.2317 65.6011V62.8818C75.1606 62.8818 76.3384 62.369 77.0304 59.3127 77.358 57.8653 77.54 53.6187 77.54 46.9905V35.6885C77.54 27.1908 76.6905 26.2559 70.4018 25.8307V22.9414H92.6666V25.8307C86.1228 26.2559 85.6131 27.1054 85.6131 36.2832ZM104.3861 62.8815C107.5368 60.7277 108.8124 55.8326 108.8124 46.9054V35.6885C108.8124 27.2758 108.1327 26.1709 101.7592 25.8307V22.9414H123.7689V25.8307C117.5652 26.2559 116.8855 27.1054 116.8855 36.2832V50.4748C116.8855 57.6981 116.2511 61.4716 114.2512 64.0715 113.3552 65.2365 112.0805 66.2281 110.5435 67.0003 108.5165 65.609 106.4616 64.2348 104.3861 62.8815ZM166.8892 34.0739C162.6401 29.3998 158.646 27.3606 153.972 27.3606 144.8793 27.3606 138.9308 35.0935 138.9308 46.9054 138.9308 48.4353 139.0158 49.7951 139.2707 50.7297H167.2288C169.5234 50.7297 169.8633 50.8997 169.8633 52.4293 169.8633 63.4765 163.4899 69.6801 152.6125 69.6801 138.9308 69.6801 129.3282 59.7376 129.3282 45.8008 129.3282 32.2044 138.3358 22.9414 151.5926 22.9414 158.8158 22.9414 164.5946 25.746 169.5234 31.6945ZM139.8654 54.6389C141.3102 61.8622 145.2192 65.6011 151.2527 65.6011 156.9464 65.6011 160.6005 62.202 160.6005 57.0183 160.6005 54.9788 160.0903 54.6389 155.5016 54.6389Z" fill-rule="evenodd"></path></g></svg>